<?xml version="1.0" encoding="UTF-8"?>
<svg version="1.1" xmlns="http://www.w3.org/2000/svg" width="210" height="179">
<path d="M0 0 C0 28.71 0 57.42 0 87 C3.96 87 7.92 87 12 87 C14.86883984 87.39355926 17.46890615 87.81242202 20.25 88.5 C20.960354 88.67305664 21.67070801 88.84611328 22.40258789 89.02441406 C33.90921864 92.06912828 44.21461263 97.59483402 53.08203125 105.53125 C54.99434789 107.30399507 54.99434789 107.30399507 58 107 C59.86008091 105.69008387 61.66513754 104.30136341 63.4375 102.875 C76.11476654 93.05156561 91.52558549 86.90000388 107.70458984 86.9753418 C108.69598969 86.97890182 109.68738953 86.98246185 110.70883179 86.98612976 C111.4649173 86.99070694 112.22100281 86.99528412 113 87 C112.99777939 85.92480606 112.99555878 84.84961212 112.99327087 83.74183655 C112.9730401 73.63215799 112.95802817 63.52248352 112.94818783 53.41278934 C112.94295884 48.21471885 112.9358609 43.01666464 112.92456055 37.81860352 C112.91373224 32.80657732 112.90772329 27.79456682 112.90512276 22.78252983 C112.90326841 20.86587718 112.8996476 18.94922543 112.89426994 17.03257942 C112.88706025 14.35771928 112.88600903 11.68292486 112.88647461 9.00805664 C112.88287933 8.2074884 112.87928406 7.40692017 112.87557983 6.58209229 C112.88594784 1.11405216 112.88594784 1.11405216 114 0 C116.64 0.33 119.28 0.66 122 1 C122 32.02 122 63.04 122 95 C110.12 95.495 110.12 95.495 98 96 C88.8623378 97.90936225 81.07805273 100.36224737 73 105 C74.26070313 104.7834375 75.52140625 104.566875 76.8203125 104.34375 C93.81060487 101.58254055 109.83368445 101.43942586 127 103 C127 71.32 127 39.64 127 7 C129.64 7 132.28 7 135 7 C135 41.65 135 76.3 135 112 C129.39 111.67 123.78 111.34 118 111 C88.85081319 109.23102428 88.85081319 109.23102428 62.375 119.1875 C60 121 60 121 56.4375 121.5 C53 121 53 121 51.18359375 119.1015625 C40.30091166 108.62771104 15.78722302 110.73302037 1.7578125 110.83203125 C-5.8357635 111.02077331 -13.41887118 111.52617945 -21 112 C-21 77.35 -21 42.7 -21 7 C-18.69 7 -16.38 7 -14 7 C-12.11114805 8.88885195 -12.87989365 11.64051759 -12.87557983 14.15324402 C-12.87917511 15.0379689 -12.88277039 15.92269379 -12.88647461 16.83422852 C-12.88632858 17.76096375 -12.88618256 18.68769897 -12.8860321 19.64251709 C-12.88673162 22.72133687 -12.89452579 25.80009697 -12.90234375 28.87890625 C-12.90420779 31.00740018 -12.90563176 33.13589453 -12.90663147 35.26438904 C-12.91045772 40.8786232 -12.92028892 46.49283168 -12.93133545 52.10705566 C-12.94154727 57.83113253 -12.9461286 63.55521353 -12.95117188 69.27929688 C-12.96191109 80.51954256 -12.9789888 91.75976915 -13 103 C-11.89775337 102.8946418 -11.89775337 102.8946418 -10.77323914 102.78715515 C-9.79837051 102.69585831 -8.82350189 102.60456146 -7.8190918 102.51049805 C-6.85738571 102.41963425 -5.89567963 102.32877045 -4.90483093 102.2351532 C-0.53862473 101.88169808 3.80876586 101.80874859 8.1875 101.8125 C9.53726929 101.81262085 9.53726929 101.81262085 10.91430664 101.81274414 C21.10911012 101.89849061 30.95701212 103.29805854 41 105 C24.26706248 96.53767971 11.82017787 95.86174686 -8 95 C-8 63.98 -8 32.96 -8 1 C-6 0 -6 0 0 0 Z " fill="#385ED8" transform="translate(52,44)"/>
<path d="M0 0 C15.43536279 0.64140573 29.1796298 4.68654437 40.29852486 15.97456551 C42.91145414 19.47680858 42.75109393 22.74484606 42.61889648 26.98413086 C42.61991867 27.85322083 42.62094086 28.72231079 42.62199402 29.61773682 C42.61714414 32.47039157 42.56283018 35.31978454 42.5078125 38.171875 C42.49474696 40.15725456 42.4847873 42.14265677 42.47779846 44.12806702 C42.45114818 49.33841931 42.38245162 54.5473925 42.30487061 59.75720215 C42.23309608 65.07948147 42.20125661 70.40198496 42.16601562 75.72460938 C42.09107798 86.15685393 41.97170048 96.58807764 41.82421875 107.01953125 C41.49421875 106.35953125 41.16421875 105.69953125 40.82421875 105.01953125 C39.50410302 104.32705983 38.16765647 103.66559418 36.82421875 103.01953125 C35.15023664 101.92648701 33.48425891 100.82113558 31.82421875 99.70703125 C23.0979004 94.1654167 14.47675121 91.0170667 4.421875 88.875 C3.59240356 88.6946521 2.76293213 88.5143042 1.9083252 88.32849121 C-0.11887431 87.88830349 -2.14721475 87.45337571 -4.17578125 87.01953125 C-4.19890394 75.82379881 -4.21669596 64.62807201 -4.22759342 53.43232059 C-4.23282241 48.2342501 -4.23992035 43.03619589 -4.2512207 37.83813477 C-4.26204901 32.82610857 -4.26805796 27.81409807 -4.27065849 22.80206108 C-4.27251284 20.88540843 -4.27613365 18.96875668 -4.28151131 17.05211067 C-4.288721 14.37725053 -4.28977222 11.70245611 -4.28930664 9.02758789 C-4.29290192 8.22701965 -4.29649719 7.42645142 -4.30020142 6.60162354 C-4.28773401 0.02636983 -4.28773401 0.02636983 0 0 Z M13.82421875 10.01953125 C14.38589976 17.88306545 16.23881406 23.961596 22.19921875 29.39453125 C27.12987106 33.26335865 31.58516416 34.31662909 37.82421875 34.01953125 C38.32204377 28.04563096 37.23668397 23.98678831 33.82421875 19.01953125 C29.44505424 13.98235757 24.32253217 11.38886162 17.82421875 10.01953125 C16.50421875 10.01953125 15.18421875 10.01953125 13.82421875 10.01953125 Z M13.82421875 34.01953125 C14.38793529 41.91156283 16.23600255 47.98582738 22.26171875 53.39453125 C27.1996273 57.26308381 31.60951851 58.28839004 37.82421875 59.01953125 C38.33995258 51.79925762 37.10192445 46.8710528 32.3515625 41.2890625 C27.29196593 36.44476792 20.82545965 34.01953125 13.82421875 34.01953125 Z M13.82421875 58.01953125 C14.06795462 65.57534326 15.80466857 71.22073638 20.82421875 77.01953125 C26.03602925 80.76552004 31.45969329 82.6044535 37.82421875 83.01953125 C38.33995258 75.79925762 37.10192445 70.8710528 32.3515625 65.2890625 C27.29196593 60.44476792 20.82545965 58.01953125 13.82421875 58.01953125 Z " fill="#434343" transform="translate(63.17578125,35.98046875)"/>
<path d="M0 0 C1.78857062 1.78857062 1.11990579 4.20123134 1.12442017 6.58209229 C1.11902725 7.78294464 1.11902725 7.78294464 1.11352539 9.00805664 C1.11367142 9.84700974 1.11381744 10.68596283 1.1139679 11.55033875 C1.1132685 14.33697044 1.10547485 17.12353616 1.09765625 19.91015625 C1.09579217 21.83686791 1.09436822 23.76358005 1.09336853 25.69029236 C1.08954259 30.77187397 1.07971166 35.8534272 1.06866455 40.93499756 C1.05845206 46.11616634 1.05387126 51.29733969 1.04882812 56.47851562 C1.03808946 66.65235625 1.02101213 76.82617577 1 87 C-0.21308838 87.2568457 -1.42617676 87.51369141 -2.67602539 87.77832031 C-4.29579718 88.12797043 -5.91550404 88.47792138 -7.53515625 88.828125 C-8.72945251 89.07973389 -8.72945251 89.07973389 -9.94787598 89.33642578 C-22.24094025 92.01306538 -32.10851185 97.22686595 -42 105 C-43.485 105.99 -43.485 105.99 -45 107 C-45.13916297 95.64727861 -45.24570398 84.29476089 -45.31087303 72.94135952 C-45.34215489 67.66917684 -45.3845707 62.3975787 -45.45263672 57.12573242 C-45.5179408 52.03581581 -45.5537297 46.94646059 -45.56926346 41.8561573 C-45.58032994 39.91646553 -45.60194087 37.97680368 -45.63438034 36.03735161 C-45.67809146 33.31516578 -45.68392812 30.59528435 -45.68115234 27.87280273 C-45.702724 27.07510468 -45.72429565 26.27740662 -45.746521 25.45553589 C-45.68707214 20.04928333 -44.26496985 17.32412432 -40.53612709 13.42187595 C-29.56288983 3.26478524 -14.65016235 -0.50517801 0 0 Z M-33.9453125 15.54296875 C-38.21087926 20.22651818 -40.79132103 25.66113654 -41.1875 32 C-41.125625 32.66 -41.06375 33.32 -41 34 C-34.37407342 34.72020941 -29.4344321 32.82555418 -24 29 C-18.53323936 23.40097902 -17.03208183 17.68359841 -17 10 C-23.08432225 10 -29.11013424 11.7078374 -33.9453125 15.54296875 Z M-35.52734375 41.12890625 C-39.55055182 46.24062154 -41.68411404 52.50091666 -41 59 C-33.26179552 57.93758258 -26.78558057 56.22817333 -21.4296875 50.24609375 C-17.80759639 45.12342204 -17.13929545 40.1796528 -17 34 C-23.88904343 34 -30.51117288 36.3736237 -35.52734375 41.12890625 Z M-34 64 C-38.57159641 68.57159641 -40.84436423 74.09479899 -41.1875 80.5 C-41.125625 81.325 -41.06375 82.15 -41 83 C-33.32890784 81.82695573 -27.39498544 80.39498544 -21.75 74.75 C-18.33791655 69.38815458 -16.51743181 64.43424258 -17 58 C-23.36229084 58 -28.84589929 60.53089375 -34 64 Z " fill="#434343" transform="translate(157,36)"/>
<path d="M0 0 C4.93024354 4.10853628 7.58041002 8.70801087 9 15 C9.03370796 22.44945826 5.82383835 27.56938953 1 33 C-3.59728142 28.89972197 -6.40218526 25.04618512 -7.3203125 18.83203125 C-7.70568681 11.36861541 -4.71429775 5.6571573 0 0 Z " fill="#3B3B3B" transform="translate(108,11)"/>
</svg>
